<?xml version="1.0" encoding="UTF-8"?>
<svg id="Layer_2" data-name="Layer 2" xmlns="http://www.w3.org/2000/svg" viewBox="0 0 1914.68 552.78">
  <defs>
    <style>
      .cls-1 {
        letter-spacing: .03em;
      }

      .cls-2 {
        font-family: AmazonEmber-Heavy, 'Amazon Ember';
        font-size: 79.35px;
        font-weight: 800;
      }

      .cls-2, .cls-3 {
        fill: #f90;
      }

      .cls-4, .cls-3 {
        stroke-width: 0px;
      }

      .cls-4, .cls-5 {
        fill: #fff;
      }

      .cls-6 {
        letter-spacing: .05em;
      }

      .cls-3 {
        fill-rule: evenodd;
      }

      .cls-5 {
        stroke: #fff;
        stroke-miterlimit: 10;
        stroke-width: 21.56px;
      }
    </style>
  </defs>
  <g id="Dark_Logo" data-name="Dark Logo">
    <g>
      <g>
        <path class="cls-4" d="M79.27,419.11c-25.9,0-45.59-6.85-59.06-20.55-13.48-13.7-20.21-33.73-20.21-60.07s7.04-45.99,21.12-60.3c14.08-14.3,33.69-21.45,58.83-21.45,12.04,0,23.34,1.58,33.88,4.74,2.41.76,4.03,1.77,4.86,3.05.83,1.28,1.24,3.35,1.24,6.21v18.97c0,4.07-1.58,6.1-4.74,6.1-.76,0-2.64-.37-5.65-1.13-7.38-1.66-14.76-2.48-22.13-2.48-13.85,0-24.32,3.65-31.39,10.95-7.08,7.3-10.61,18.1-10.61,32.41v4.97c0,14,3.42,24.69,10.28,32.07,6.85,7.38,16.97,11.07,30.38,11.07,9.33,0,18.07-.98,26.2-2.94,2.41-.6,4.14-.91,5.2-.91,3.16,0,4.74,2.03,4.74,6.1v18.97c0,2.86-.42,4.94-1.24,6.21-.83,1.28-2.45,2.3-4.86,3.05-10.24,3.31-22.51,4.97-36.81,4.97Z"/>
        <path class="cls-4" d="M212.74,420.01c-16.41,0-30.57-3.42-42.46-10.28-11.9-6.85-20.93-16.45-27.1-28.79-6.18-12.34-9.26-26.8-9.26-43.36s3.24-31.66,9.71-43.93c6.47-12.27,15.62-21.64,27.44-28.12,11.82-6.47,25.71-9.71,41.67-9.71s30.56,3.39,42.46,10.16c11.89,6.78,20.96,16.34,27.21,28.68,6.25,12.35,9.37,26.87,9.37,43.59s-3.24,31.7-9.71,44.04c-6.47,12.35-15.66,21.72-27.55,28.12-11.9,6.4-25.82,9.6-41.78,9.6ZM212.74,385.46c11.44,0,20.06-3.99,25.86-11.97,5.8-7.98,8.7-19.72,8.7-35.23s-2.94-27.74-8.81-35.8c-5.87-8.05-14.45-12.08-25.75-12.08s-19.84,3.99-25.63,11.97c-5.8,7.98-8.7,19.73-8.7,35.23s2.9,27.55,8.7,35.68c5.79,8.13,14.34,12.2,25.63,12.2Z"/>
        <path class="cls-4" d="M327.47,416.17c-2.41,0-4.14-.53-5.19-1.58-1.05-1.05-1.58-2.78-1.58-5.2v-142.96c0-2.56.53-4.33,1.58-5.31,1.05-.98,2.78-1.47,5.19-1.47h33.88c2.11,0,3.73.34,4.86,1.02,1.13.68,2.22,2.14,3.27,4.4l35.46,79.5,35.91-79.5c1.05-2.26,2.14-3.73,3.27-4.4,1.13-.68,2.74-1.02,4.85-1.02h32.3c2.56,0,4.33.49,5.31,1.47.98.98,1.47,2.75,1.47,5.31v142.96c0,2.41-.49,4.14-1.47,5.2-.98,1.05-2.75,1.58-5.31,1.58h-23.94c-2.41,0-4.14-.53-5.19-1.58-1.05-1.05-1.58-2.78-1.58-5.2v-89.88l-24.62,55.56c-1.05,2.26-2.14,3.73-3.27,4.4-1.13.68-2.75,1.02-4.85,1.02h-26.88c-2.11,0-3.73-.34-4.86-1.02-1.13-.68-2.22-2.15-3.27-4.4l-24.62-55.56v89.88c0,2.41-.49,4.14-1.47,5.2-.98,1.05-2.75,1.58-5.31,1.58h-23.94Z"/>
        <path class="cls-4" d="M528.24,416.17c-2.41,0-4.14-.53-5.19-1.58-1.05-1.05-1.58-2.78-1.58-5.2v-142.96c0-2.56.53-4.33,1.58-5.31,1.05-.98,2.78-1.47,5.19-1.47h33.88c2.11,0,3.73.34,4.86,1.02,1.13.68,2.22,2.14,3.27,4.4l35.46,79.5,35.91-79.5c1.05-2.26,2.14-3.73,3.27-4.4,1.13-.68,2.74-1.02,4.85-1.02h32.3c2.56,0,4.33.49,5.31,1.47.98.98,1.47,2.75,1.47,5.31v142.96c0,2.41-.49,4.14-1.47,5.2-.98,1.05-2.75,1.58-5.31,1.58h-23.94c-2.41,0-4.14-.53-5.19-1.58-1.05-1.05-1.58-2.78-1.58-5.2v-89.88l-24.62,55.56c-1.05,2.26-2.14,3.73-3.27,4.4-1.13.68-2.75,1.02-4.85,1.02h-26.88c-2.11,0-3.73-.34-4.86-1.02-1.13-.68-2.22-2.15-3.27-4.4l-24.62-55.56v89.88c0,2.41-.49,4.14-1.47,5.2-.98,1.05-2.75,1.58-5.31,1.58h-23.94Z"/>
        <path class="cls-4" d="M789.77,420.01c-21.68,0-38.51-5.31-50.48-15.92-11.97-10.61-17.95-25.71-17.95-45.28v-92.37c0-2.56.53-4.33,1.58-5.31,1.05-.98,2.78-1.47,5.19-1.47h30.04c2.56,0,4.33.49,5.31,1.47.98.98,1.47,2.75,1.47,5.31v93.73c0,8.28,2.11,14.57,6.32,18.86,4.21,4.29,10.39,6.43,18.52,6.43,16.71,0,25.07-8.43,25.07-25.29v-93.73c0-2.56.53-4.33,1.58-5.31,1.05-.98,2.78-1.47,5.2-1.47h30.04c2.56,0,4.33.49,5.31,1.47.98.98,1.47,2.75,1.47,5.31v92.6c0,19.42-6.02,34.44-18.07,45.06-12.05,10.61-28.91,15.92-50.59,15.92Z"/>
        <path class="cls-4" d="M897.72,416.17c-2.41,0-4.14-.53-5.19-1.58-1.05-1.05-1.58-2.78-1.58-5.2v-142.96c0-2.56.53-4.33,1.58-5.31,1.05-.98,2.78-1.47,5.19-1.47h31.84c2.56,0,4.48.38,5.76,1.13,1.28.75,2.44,2.03,3.5,3.84l52.17,93.95v-92.15c0-2.56.53-4.33,1.58-5.31,1.05-.98,2.79-1.47,5.2-1.47h23.94c2.56,0,4.33.49,5.31,1.47.98.98,1.47,2.75,1.47,5.31v142.96c0,2.41-.49,4.14-1.47,5.2-.98,1.05-2.75,1.58-5.31,1.58h-31.84c-2.56,0-4.48-.37-5.76-1.13-1.28-.75-2.45-2.03-3.5-3.84l-52.17-93.05v91.24c0,2.41-.49,4.14-1.47,5.2-.98,1.05-2.75,1.58-5.31,1.58h-23.94Z"/>
        <path class="cls-4" d="M1069.58,416.17c-2.41,0-4.14-.53-5.19-1.58-1.05-1.05-1.58-2.78-1.58-5.2v-142.96c0-2.56.53-4.33,1.58-5.31,1.05-.98,2.78-1.47,5.19-1.47h30.04c2.56,0,4.33.49,5.31,1.47.98.98,1.47,2.75,1.47,5.31v142.96c0,2.41-.49,4.14-1.47,5.2-.98,1.05-2.75,1.58-5.31,1.58h-30.04Z"/>
        <path class="cls-4" d="M1178.22,416.17c-2.41,0-4.14-.53-5.2-1.58-1.05-1.05-1.58-2.78-1.58-5.2v-115.63h-38.62c-2.41,0-4.14-.53-5.19-1.58-1.05-1.05-1.58-2.78-1.58-5.2v-20.55c0-2.56.53-4.33,1.58-5.31,1.05-.98,2.78-1.47,5.19-1.47h120.83c2.56,0,4.33.49,5.31,1.47.98.98,1.47,2.75,1.47,5.31v20.55c0,2.41-.49,4.14-1.47,5.2-.98,1.05-2.75,1.58-5.31,1.58h-38.62v115.63c0,2.41-.49,4.14-1.47,5.2-.98,1.05-2.75,1.58-5.31,1.58h-30.04Z"/>
        <path class="cls-4" d="M1331.33,416.17c-2.41,0-4.14-.53-5.2-1.58-1.05-1.05-1.58-2.78-1.58-5.2v-52.17l-47.2-86.27c-1.81-3.16-2.71-5.42-2.71-6.77,0-3.01,1.95-4.52,5.87-4.52h32.07c2.41,0,4.33.45,5.76,1.35,1.43.9,2.6,2.41,3.5,4.52l25.74,60.53,26.2-60.53c.9-2.11,2.07-3.61,3.5-4.52,1.43-.9,3.35-1.35,5.76-1.35h29.81c3.91,0,5.87,1.51,5.87,4.52,0,1.35-.91,3.61-2.71,6.77l-47.88,86.73v51.72c0,2.41-.49,4.14-1.47,5.2-.98,1.05-2.75,1.58-5.31,1.58h-30.04Z"/>
        <path class="cls-4" d="M1487.84,416.17c-2.41,0-4.14-.53-5.19-1.58-1.06-1.05-1.58-2.78-1.58-5.2v-142.96c0-2.56.52-4.33,1.58-5.31,1.05-.98,2.78-1.47,5.19-1.47h54.43c24.09,0,42.76,6.77,56.01,20.32,13.25,13.55,19.88,32.83,19.88,57.82,0,16.41-2.94,30.53-8.81,42.35-5.87,11.82-14.27,20.78-25.18,26.88-10.92,6.1-23.98,9.15-39.19,9.15h-57.14ZM1524.65,382.75h14.9c22.73,0,34.1-14.3,34.1-42.91v-4.07c0-28.46-11.22-42.68-33.65-42.68h-15.36v89.66Z"/>
        <path class="cls-4" d="M1631.47,416.17c-3.92,0-5.87-1.5-5.87-4.52,0-1.2.6-3.46,1.81-6.78l49.91-139.8c.75-2.11,1.65-3.54,2.71-4.29,1.05-.75,2.78-1.13,5.19-1.13h36.13c2.41,0,4.14.38,5.2,1.13,1.05.75,1.96,2.18,2.71,4.29l50.14,139.8c1.2,3.31,1.81,5.57,1.81,6.78,0,3.01-1.96,4.52-5.87,4.52h-33.88c-2.41,0-4.18-.45-5.31-1.35-1.13-.91-2.07-2.71-2.82-5.42l-6.77-23.49h-48.33l-6.55,23.49c-.76,2.71-1.69,4.52-2.82,5.42-1.13.9-2.9,1.35-5.31,1.35h-32.07ZM1718.42,355.19l-16.26-58.04-15.81,58.04h32.07Z"/>
        <path class="cls-4" d="M1827.28,416.17c-2.41,0-4.14-.53-5.2-1.58-1.05-1.05-1.58-2.78-1.58-5.2v-52.17l-47.2-86.27c-1.81-3.16-2.71-5.42-2.71-6.77,0-3.01,1.95-4.52,5.87-4.52h32.07c2.41,0,4.33.45,5.76,1.35,1.43.9,2.6,2.41,3.5,4.52l25.74,60.53,26.2-60.53c.9-2.11,2.07-3.61,3.5-4.52,1.43-.9,3.35-1.35,5.76-1.35h29.81c3.91,0,5.87,1.51,5.87,4.52,0,1.35-.91,3.61-2.71,6.77l-47.88,86.73v51.72c0,2.41-.49,4.14-1.47,5.2-.98,1.05-2.75,1.58-5.31,1.58h-30.04Z"/>
      </g>
      <g>
        <path class="cls-4" d="M898.99,71.79c0,4.11.41,7.38,1.25,9.82.83,2.44,2.02,5.07,3.56,7.89.51.9.77,1.73.77,2.5,0,1.15-.71,2.25-2.12,3.27l-6.93,4.62c-1.03.64-1.99.96-2.89.96-1.15,0-2.25-.51-3.27-1.54-1.54-1.54-2.86-3.24-3.95-5.1-1.09-1.86-2.21-4.01-3.37-6.45-8.6,10.14-19.38,15.2-32.33,15.2-9.24,0-16.55-2.63-21.94-7.89-5.39-5.26-8.08-12.32-8.08-21.17,0-9.36,3.34-16.9,10.01-22.61,6.67-5.71,15.65-8.56,26.94-8.56,3.72,0,7.6.29,11.64.87,4.04.58,8.24,1.38,12.61,2.41v-8.08c0-8.34-1.73-14.21-5.2-17.61-3.46-3.4-9.43-5.1-17.9-5.1-3.85,0-7.8.48-11.84,1.44-4.04.96-7.99,2.21-11.84,3.75-1.8.77-3.08,1.25-3.85,1.44-.77.19-1.35.29-1.73.29-1.54,0-2.31-1.15-2.31-3.46v-5.39c0-1.8.26-3.08.77-3.85.51-.77,1.54-1.54,3.08-2.31,3.85-1.92,8.47-3.59,13.86-5,5.39-1.41,11.1-2.12,17.13-2.12,13.09,0,22.68,2.98,28.77,8.95,6.09,5.97,9.14,14.98,9.14,27.04v35.8ZM854.33,88.53c3.59,0,7.38-.67,11.36-2.02,3.98-1.35,7.44-3.69,10.39-7.03,1.8-2.05,3.05-4.39,3.75-7.03.7-2.63,1.06-5.8,1.06-9.53v-4.62c-3.21-.77-6.58-1.38-10.1-1.83-3.53-.45-6.96-.67-10.3-.67-7.31,0-12.77,1.48-16.36,4.43-3.59,2.95-5.39,7.19-5.39,12.7,0,5.13,1.35,9.02,4.04,11.64,2.69,2.63,6.54,3.95,11.55,3.95ZM942.68,100.47c-1.92,0-3.34-.35-4.23-1.06-.9-.7-1.67-2.15-2.31-4.33l-25.79-85.07c-.64-2.18-.96-3.66-.96-4.43,0-1.8.9-2.69,2.69-2.69h10.78c2.05,0,3.49.36,4.33,1.06.83.71,1.57,2.15,2.21,4.33l18.48,72.75,17.13-72.75c.51-2.18,1.22-3.62,2.12-4.33.9-.7,2.37-1.06,4.43-1.06h8.85c2.05,0,3.53.36,4.43,1.06.9.71,1.6,2.15,2.12,4.33l17.32,73.71,19.05-73.71c.64-2.18,1.38-3.62,2.21-4.33.83-.7,2.28-1.06,4.33-1.06h10.2c1.8,0,2.69.9,2.69,2.69,0,.51-.07,1.09-.19,1.73-.13.64-.38,1.54-.77,2.69l-26.56,85.07c-.64,2.18-1.41,3.63-2.31,4.33-.9.71-2.31,1.06-4.23,1.06h-9.43c-2.05,0-3.53-.38-4.43-1.15-.9-.77-1.61-2.24-2.12-4.43l-17.13-70.83-16.94,70.83c-.51,2.18-1.22,3.66-2.12,4.43-.9.77-2.38,1.15-4.43,1.15h-9.43ZM1083.94,103.35c-5.77,0-11.42-.64-16.94-1.92-5.52-1.28-9.75-2.76-12.7-4.43-1.8-1.02-2.92-2.05-3.37-3.08-.45-1.03-.67-2.05-.67-3.08v-5.58c0-2.31.83-3.46,2.5-3.46.64,0,1.31.13,2.02.38.7.26,1.64.64,2.79,1.15,3.72,1.67,7.76,2.95,12.12,3.85,4.36.9,8.72,1.35,13.09,1.35,6.93,0,12.28-1.22,16.07-3.66,3.78-2.44,5.68-5.9,5.68-10.39,0-3.08-.99-5.64-2.98-7.7-1.99-2.05-5.68-3.98-11.07-5.77l-15.97-5c-8.08-2.57-13.95-6.29-17.61-11.16-3.66-4.87-5.48-10.2-5.48-15.97,0-4.62.99-8.69,2.98-12.22,1.99-3.53,4.62-6.54,7.89-9.05,3.27-2.5,7.09-4.39,11.45-5.68,4.36-1.28,8.98-1.92,13.86-1.92,2.44,0,4.91.16,7.41.48,2.5.32,4.87.74,7.12,1.25,2.24.51,4.33,1.09,6.26,1.73,1.92.64,3.46,1.28,4.62,1.92,1.54.9,2.63,1.8,3.27,2.69.64.9.96,2.12.96,3.66v5.2c0,2.31-.84,3.46-2.5,3.46-.9,0-2.31-.45-4.23-1.35-6.29-2.82-13.35-4.23-21.17-4.23-6.29,0-11.16,1.03-14.63,3.08-3.46,2.05-5.2,5.33-5.2,9.82,0,3.08,1.09,5.68,3.27,7.79,2.18,2.12,6.22,4.14,12.13,6.06l15.59,5c7.95,2.57,13.63,6.1,17.03,10.59,3.4,4.49,5.1,9.62,5.1,15.4,0,4.75-.96,9.02-2.89,12.8-1.92,3.79-4.59,7.03-7.99,9.72-3.4,2.69-7.48,4.75-12.22,6.16-4.75,1.41-9.94,2.12-15.59,2.12Z"/>
        <g>
          <path class="cls-3" d="M1104.74,157.51c-36.21,26.72-88.71,40.93-133.91,40.93-63.35,0-120.41-23.42-163.58-62.4-3.39-3.06-.37-7.24,3.71-4.87,46.58,27.1,104.18,43.43,163.68,43.43,40.13,0,84.25-8.33,124.84-25.55,6.12-2.6,11.25,4.03,5.26,8.46Z"/>
          <path class="cls-3" d="M1119.81,140.31c-4.63-5.93-30.61-2.81-42.29-1.41-3.54.42-4.08-2.67-.9-4.9,20.73-14.56,54.69-10.36,58.64-5.48,3.98,4.92-1.05,38.97-20.47,55.22-2.99,2.5-5.83,1.17-4.51-2.13,4.37-10.92,14.16-35.35,9.52-41.29Z"/>
        </g>
      </g>
      <line class="cls-5" x1="576.53" y1="500.25" x2="155.36" y2="500.25"/>
      <line class="cls-5" x1="1760.68" y1="500.25" x2="1339.51" y2="500.25"/>
      <text id="CHANGE_LOCATION" data-name="CHANGE LOCATION" class="cls-2" transform="translate(718.03 528.5)"><tspan class="cls-6" x="0" y="0">CAME</tspan><tspan class="cls-1" x="238.84" y="0">R</tspan><tspan class="cls-6" x="294.15" y="0">OON</tspan></text>
    </g>
  </g>
</svg>